<mxfile host="app.diagrams.net" modified="2022-05-02T15:12:22.788Z" agent="5.0 (Windows NT 10.0; Win64; x64) AppleWebKit/537.36 (KHTML, like Gecko) Chrome/101.0.4951.41 Safari/537.36 Edg/101.0.1210.32" etag="r5DRLm-yZrjy1vnsdLsq" version="17.5.0" type="github">
  <diagram id="P6Rb9MCEYdDUyGnn_80M" name="Page-1">
    <mxGraphModel dx="1038" dy="579" grid="1" gridSize="10" guides="1" tooltips="1" connect="1" arrows="1" fold="1" page="1" pageScale="1" pageWidth="850" pageHeight="1100" math="0" shadow="0">
      <root>
        <mxCell id="0" />
        <mxCell id="1" parent="0" />
        <mxCell id="3ITKxdComDr0UlQD89eg-3" value="" style="edgeStyle=orthogonalEdgeStyle;rounded=0;orthogonalLoop=1;jettySize=auto;html=1;" edge="1" parent="1" source="3ITKxdComDr0UlQD89eg-1" target="3ITKxdComDr0UlQD89eg-2">
          <mxGeometry relative="1" as="geometry" />
        </mxCell>
        <mxCell id="3ITKxdComDr0UlQD89eg-1" value="start" style="rounded=1;whiteSpace=wrap;html=1;" vertex="1" parent="1">
          <mxGeometry x="80" y="30" width="90" height="20" as="geometry" />
        </mxCell>
        <mxCell id="3ITKxdComDr0UlQD89eg-5" value="" style="edgeStyle=orthogonalEdgeStyle;rounded=0;orthogonalLoop=1;jettySize=auto;html=1;" edge="1" parent="1" source="3ITKxdComDr0UlQD89eg-2" target="3ITKxdComDr0UlQD89eg-4">
          <mxGeometry relative="1" as="geometry" />
        </mxCell>
        <mxCell id="3ITKxdComDr0UlQD89eg-2" value="store the target agent position into path array" style="shape=dataStorage;whiteSpace=wrap;html=1;fixedSize=1;" vertex="1" parent="1">
          <mxGeometry x="75" y="110" width="95" height="60" as="geometry" />
        </mxCell>
        <mxCell id="3ITKxdComDr0UlQD89eg-7" value="" style="edgeStyle=orthogonalEdgeStyle;rounded=0;orthogonalLoop=1;jettySize=auto;html=1;" edge="1" parent="1" source="3ITKxdComDr0UlQD89eg-4" target="3ITKxdComDr0UlQD89eg-6">
          <mxGeometry relative="1" as="geometry" />
        </mxCell>
        <mxCell id="3ITKxdComDr0UlQD89eg-4" value="set the target to char" style="whiteSpace=wrap;html=1;" vertex="1" parent="1">
          <mxGeometry x="62.5" y="220" width="120" height="60" as="geometry" />
        </mxCell>
        <mxCell id="3ITKxdComDr0UlQD89eg-9" style="edgeStyle=orthogonalEdgeStyle;rounded=0;orthogonalLoop=1;jettySize=auto;html=1;entryX=0.5;entryY=0;entryDx=0;entryDy=0;" edge="1" parent="1" source="3ITKxdComDr0UlQD89eg-6" target="3ITKxdComDr0UlQD89eg-8">
          <mxGeometry relative="1" as="geometry" />
        </mxCell>
        <mxCell id="3ITKxdComDr0UlQD89eg-6" value="IF char act mode group" style="rhombus;whiteSpace=wrap;html=1;" vertex="1" parent="1">
          <mxGeometry x="82.5" y="340" width="80" height="80" as="geometry" />
        </mxCell>
        <mxCell id="3ITKxdComDr0UlQD89eg-11" value="" style="edgeStyle=orthogonalEdgeStyle;rounded=0;orthogonalLoop=1;jettySize=auto;html=1;" edge="1" parent="1" source="3ITKxdComDr0UlQD89eg-8" target="3ITKxdComDr0UlQD89eg-10">
          <mxGeometry relative="1" as="geometry" />
        </mxCell>
        <mxCell id="3ITKxdComDr0UlQD89eg-8" value="FOR all char" style="rhombus;whiteSpace=wrap;html=1;" vertex="1" parent="1">
          <mxGeometry x="260" y="40" width="80" height="80" as="geometry" />
        </mxCell>
        <mxCell id="3ITKxdComDr0UlQD89eg-13" value="" style="edgeStyle=orthogonalEdgeStyle;rounded=0;orthogonalLoop=1;jettySize=auto;html=1;" edge="1" parent="1" source="3ITKxdComDr0UlQD89eg-10" target="3ITKxdComDr0UlQD89eg-12">
          <mxGeometry relative="1" as="geometry" />
        </mxCell>
        <mxCell id="3ITKxdComDr0UlQD89eg-10" value="set the leader target agent, target postion" style="whiteSpace=wrap;html=1;" vertex="1" parent="1">
          <mxGeometry x="240" y="190" width="120" height="60" as="geometry" />
        </mxCell>
        <mxCell id="3ITKxdComDr0UlQD89eg-12" value="end" style="ellipse;whiteSpace=wrap;html=1;" vertex="1" parent="1">
          <mxGeometry x="240" y="300" width="120" height="60" as="geometry" />
        </mxCell>
      </root>
    </mxGraphModel>
  </diagram>
</mxfile>
